<?xml version="1.0" standalone="no"?>
<!DOCTYPE svg PUBLIC "-//W3C//DTD SVG 20010904//EN"
 "http://www.w3.org/TR/2001/REC-SVG-20010904/DTD/svg10.dtd">
<svg version="1.0" xmlns="http://www.w3.org/2000/svg"
 width="8430.000000pt" height="2450.000000pt" viewBox="0 0 8430.000000 2450.000000"
 preserveAspectRatio="xMidYMid meet">
<metadata>
Created by potrace 1.16, written by Peter Selinger 2001-2019
</metadata>
<g transform="translate(0.000000,2450.000000) scale(0.100000,-0.100000)"
fill="#000000" stroke="none">
<path d="M4065 24430 c-104 -15 -1042 -146 -2082 -291 l-1893 -263 0 -11606 0
-11607 198 -36 c2079 -384 5066 -605 7092 -526 2096 81 3670 500 4745 1262
1236 876 1879 2213 2039 4242 41 516 41 537 41 3605 0 3070 0 3060 -41 3510
-93 1031 -338 1899 -732 2595 -74 132 -264 413 -357 528 -606 754 -1430 1230
-2501 1446 -1023 206 -2355 162 -3829 -125 -806 -158 -1751 -434 -2402 -703
l-73 -30 0 4015 c0 2208 -3 4013 -7 4013 -5 -1 -93 -14 -198 -29z m4375
-10608 c284 -43 482 -99 677 -192 169 -80 288 -164 419 -295 257 -256 397
-574 470 -1070 17 -112 18 -297 22 -2950 4 -3191 3 -3210 -69 -3645 -190
-1148 -811 -1732 -2063 -1940 -374 -62 -661 -80 -1276 -80 -869 0 -1641 42
-2257 121 l-93 12 0 4559 0 4559 78 35 c1021 467 2229 815 3102 894 63 5 133
12 155 14 22 2 189 2 370 1 269 -3 355 -7 465 -23z"/>
<path d="M48860 24425 c-124 -18 -1061 -149 -2082 -291 l-1858 -258 0 -11723
0 -11723 2090 0 2090 0 0 12015 c0 6608 -3 12014 -7 12014 -5 -1 -109 -16
-233 -34z"/>
<path d="M81420 21410 l0 -1450 1440 0 1440 0 0 1450 0 1450 -1440 0 -1440 0
0 -1450z"/>
<path d="M38515 17410 c-2207 -68 -3735 -498 -4795 -1347 -448 -358 -832 -834
-1107 -1369 -406 -790 -617 -1684 -695 -2949 -19 -304 -19 -5684 0 -5990 42
-678 114 -1199 237 -1700 561 -2283 2081 -3485 4868 -3850 904 -118 2031 -152
2947 -90 1106 75 2235 276 3060 544 70 23 116 43 118 52 3 19 -505 3399 -512
3407 -4 3 -104 -18 -224 -46 -1138 -272 -2353 -410 -3412 -388 -851 18 -1422
121 -1851 336 -196 98 -299 171 -448 314 -326 316 -513 763 -585 1403 -35 309
-37 488 -34 3148 4 2808 2 2688 53 3030 123 831 479 1343 1125 1618 338 144
735 225 1310 269 215 17 965 16 1225 0 976 -63 1884 -191 2627 -373 115 -28
211 -49 214 -46 4 3 425 2790 509 3369 9 57 29 46 -230 124 -872 264 -2069
459 -3200 524 -253 14 -892 20 -1200 10z"/>
<path d="M72055 17409 c-1197 -35 -2193 -196 -2975 -481 -586 -214 -1085 -509
-1461 -865 -218 -206 -377 -394 -534 -628 -500 -748 -771 -1721 -860 -3088
-33 -512 -36 -948 -32 -4502 4 -3464 6 -3629 37 -3995 77 -897 373 -1734 825
-2335 481 -639 1139 -1062 1980 -1274 432 -109 833 -153 1390 -154 1371 0
2671 302 3810 887 673 346 1239 753 1795 1293 l165 160 125 -996 125 -996
1168 -3 1167 -2 -2 7931 -3 7932 -200 68 c-1038 351 -2282 656 -3400 833
-1150 183 -2074 246 -3120 215z m1160 -2439 c877 -39 1723 -155 2565 -351 96
-23 178 -44 181 -47 4 -4 9 -2063 12 -4577 l4 -4570 -96 -104 c-289 -314 -675
-692 -991 -972 -995 -880 -1946 -1420 -2940 -1669 -438 -110 -787 -153 -1250
-154 -370 -1 -520 16 -739 86 -546 174 -835 594 -915 1329 -40 366 -41 430
-41 3989 0 3626 0 3583 46 4040 139 1376 565 2180 1380 2604 462 240 1028 364
1829 399 171 8 759 6 955 -3z"/>
<path d="M15910 10898 c0 -3886 4 -6265 10 -6403 49 -1100 232 -1934 575
-2623 518 -1040 1361 -1611 2590 -1756 465 -55 1101 -38 1815 49 1641 201
3628 795 5245 1569 99 47 182 82 186 78 4 -4 87 -279 184 -612 97 -333 188
-642 201 -687 l25 -83 1595 0 1594 0 0 8325 0 8325 -2090 0 -2090 0 0 -5778 0
-5778 -317 -157 c-1365 -672 -2788 -1140 -3736 -1228 -168 -15 -551 -7 -670
15 -260 49 -448 134 -594 270 -163 152 -259 345 -320 646 -16 80 -17 452 -20
6048 l-3 5962 -2090 0 -2090 0 0 -6182z"/>
<path d="M52062 12988 c-1298 -2251 -2368 -4106 -2377 -4123 l-17 -30 2507
-4195 c1378 -2307 2510 -4198 2514 -4203 4 -4 1038 -6 2299 -5 l2292 3 -79
130 c-676 1110 -5004 8263 -5004 8270 0 6 1096 1858 2436 4117 1341 2259 2437
4111 2437 4117 0 8 -677 11 -2324 11 l-2324 0 -2360 -4092z"/>
<path d="M81427 17073 c-4 -3 -7 -3750 -7 -8325 l0 -8318 1440 0 1440 0 0
8325 0 8325 -1433 0 c-789 0 -1437 -3 -1440 -7z"/>
<path d="M61080 2320 l0 -1890 1680 0 1680 0 0 1890 0 1890 -1680 0 -1680 0 0
-1890z"/>
</g>
</svg>
